<?xml version="1.0" encoding="UTF-8" standalone="no"?>
<svg width="128" height="128" viewBox="0 0 24 24" version="1.1" xmlns="http://www.w3.org/2000/svg" xmlns:xlink="http://www.w3.org/1999/xlink">
    <!-- Generator: Sketch 41 (35326) - http://www.bohemiancoding.com/sketch -->
    <title>intoabai</title>
    <desc>Created with Sketch.</desc>
    <defs>
        <polygon id="path-1" points="0.00175609756 0.00556198486 0.00175609756 20.1410989 20.9795415 20.1410989 20.9795415 0.00556198486 0.00175609756 0.00556198486"></polygon>
    </defs>
    <g id="Page-1" stroke="none" stroke-width="1" fill="none" fill-rule="evenodd">
        <g id="后台首页" transform="translate(-30.000000, -165.000000)">
            <g id="Group-16" transform="translate(30.000000, 165.000000)">
                <g id="intoabai">
                    <g id="Group-3" transform="translate(0.000000, 2.893356)">
                        <mask id="mask-2" fill="white">
                            <use xlink:href="#path-1"></use>
                        </mask>
                        <g id="Clip-2"></g>
                        <path d="M10.4896976,20.1410989 C16.283122,20.1410989 20.9795415,15.6336158 20.9795415,10.0734007 C20.9795415,9.67616821 20.6440976,9.35421918 20.2302146,9.35421918 C19.8164488,9.35421918 19.4810341,9.67616821 19.4810341,10.0734007 C19.4810341,14.8392913 15.4554732,18.7028764 10.4896976,18.7028764 C5.52403902,18.7028764 1.49850732,14.8392913 1.49850732,10.0734007 C1.49850732,5.30739765 5.52403902,1.44392498 10.4896976,1.44392498 C10.9035805,1.44392498 11.2390244,1.12186358 11.2390244,0.724743482 C11.2390244,0.327623381 10.9035805,0.00556198486 10.4896976,0.00556198486 C4.69641951,0.00556198486 0,4.51304508 0,10.0734007 C0,15.6336158 4.69641951,20.1410989 10.4896976,20.1410989 Z" id="Fill-1" fill="#FFFFFF" mask="url(#mask-2)"></path>
                    </g>
                    <path d="M13.4868585,0.0224726661 C13.0729756,0.0224726661 12.7375317,0.344421699 12.7375317,0.741654163 L12.7375317,10.0901709 C12.7375317,10.4874034 13.0729756,10.8093524 13.4868585,10.8093524 L23.2273756,10.8093524 C23.6411122,10.8093524 23.9765561,10.4874034 23.9765561,10.0901709 C23.9765561,4.52995576 19.2801366,0.0224726661 13.4868585,0.0224726661 Z M14.236039,9.37112986 L14.236039,1.48946022 C18.6112098,1.84003381 22.0828098,5.17197174 22.4481073,9.37112986 L14.236039,9.37112986 Z" id="Fill-4" fill="#FFFFFF"></path>
                    <path d="M10.302439,17.6410148 C7.71699512,17.6390484 5.62156098,15.6279134 5.6195122,13.1464816 C5.6195122,12.7493615 5.28406829,12.4274405 4.87018537,12.4274405 C4.45644878,12.4274405 4.12100488,12.7493615 4.12100488,13.1464816 C4.12510244,16.4214794 6.89016585,19.0753046 10.302439,19.0792373 C10.7162049,19.0792373 11.0517659,18.7572883 11.0517659,18.3601963 C11.0517659,17.9629638 10.7162049,17.6410148 10.302439,17.6410148 Z" id="Fill-5" fill="#FFFFFF"></path>
                </g>
            </g>
        </g>
    </g>
</svg>